<svg width="137" height="116" viewBox="0 0 137 116" fill="none" xmlns="http://www.w3.org/2000/svg">
<path d="M52.306 28.173C52.306 20.0403 52.4091 19.2881 53.6425 18.4254C53.9768 18.1915 54.7063 18 55.2635 18C56.0669 18 56.4595 18.1831 57.1642 18.8869L58.0522 19.7738L58.0512 27.9513C58.0504 35.5967 58.0172 36.1831 57.5413 36.9625C56.4266 38.7884 53.5012 38.611 52.6884 36.6682C52.3825 35.9371 52.306 34.239 52.306 28.173Z" fill="#375030"/>
<path d="M79.1371 29.1303C79.1599 18.7977 79.0917 19.642 79.9724 18.7625C80.5841 18.1518 80.9608 18.001 81.8661 18.0057C83.0616 18.012 83.8987 18.4995 84.4023 19.4826C84.599 19.8666 84.694 22.7265 84.694 28.251C84.694 36.0759 84.67 36.4802 84.1675 37.1182C83.3834 38.1138 82.0881 38.4644 80.9495 37.9894C79.1567 37.2413 79.1196 37.0592 79.1371 29.1303Z" fill="#375030"/>
<path d="M24.75 76.1011L24.7155 47.9303L24.6813 19.7597L26.6745 19.9376C29.0252 20.1475 32.6869 20.9108 35.0672 21.6868C42.6261 24.1518 48.5597 29.5132 49.0546 34.3258C49.2354 36.0845 49.1803 35.9488 54.5635 47.9141C56.7695 52.818 58.5746 57.0946 58.5746 57.4178C58.5746 58.4836 57.5385 60.1694 55.9583 61.6748C51.0107 66.3877 43.4734 66.345 38.7124 61.577C37.9157 60.7793 36.9906 59.5397 36.656 58.8224C35.9223 57.2493 35.6368 58.1309 40.0369 48.3886C45.7944 35.641 45.8427 35.5221 45.6573 34.5348C45.4128 33.2326 42.8672 30.6437 40.3825 29.1702C37.1447 27.2501 31.919 25.3037 30.0016 25.3037H29.3209V48.3727V71.4414L30.431 71.5679C31.0416 71.6373 32.7752 71.8282 34.2836 71.9918C44.3087 73.0797 53.6451 77.199 60.4683 83.5449L61.4478 84.4558V87.721V90.9861L59.4235 89.8329C50.5779 84.7925 36.1566 83.4158 20.3097 86.0986C18.5858 86.3905 16.9108 86.6946 16.5877 86.7747L16 86.92V57.6768V28.4338H18.3507H20.7015V54.8124V81.191L22.0728 81.0382C31.8879 79.9424 39.9058 80.2201 47.2529 81.9102C50.0192 82.5464 54.9297 84.1224 56.2787 84.8066C58.0115 85.6857 57.9501 85.327 56.1421 84.0108C52.5188 81.3728 46.9614 78.9347 41.8582 77.7442C37.0656 76.6262 35.1523 76.3847 29.9739 76.2436L24.75 76.1011Z" fill="#375030"/>
<path d="M91.4639 27.974C95.4819 23.94 101.6 21.1346 108.599 20.1168C109.458 19.9918 110.66 19.8752 111.271 19.8577L112.381 19.8259V47.9973V76.1687H108.476C98.3129 76.1687 88.5803 78.8293 81.643 83.5042C79.7452 84.7831 78.9089 85.5813 79.8844 85.1828C87.6275 82.0187 93.752 80.716 102.194 80.438C106.558 80.2945 109.554 80.4346 114.797 81.0277L116.299 81.1978V54.8158V28.4338H118.649H121V57.6768V86.92L120.354 86.758C114.081 85.1856 100.926 84.3261 94.1521 85.0461C87.3919 85.7647 80.5379 87.835 76.9791 90.2335L75.8134 91.0192V87.659V84.2987L77.4459 82.8166C79.6702 80.7969 84.3025 77.7486 87.3062 76.3278C92.2277 74 99.0529 72.1877 104.154 71.8546C105.446 71.7703 106.768 71.6477 107.091 71.5822L107.679 71.4635V48.3836V25.3037H106.96C105.967 25.3037 103.252 26.1076 100.757 27.1403C96.2425 29.0098 92.4241 31.8919 91.5969 34.0548L91.1461 35.2341L92.5949 38.4203C97.7843 49.8311 100.888 56.9015 100.885 57.3082C100.876 59.0598 97.8297 62.6746 95.3591 63.8654C90.3645 66.273 84.6794 65.2938 80.8587 61.3675C79.4785 59.9493 78.6866 58.4927 78.6866 57.3719C78.6866 56.7093 83.0671 46.5207 87.5392 36.7809C87.8354 36.1353 88.0807 35.0755 88.0838 34.426C88.0924 32.6306 89.4982 29.9475 91.4639 27.974Z" fill="#375030"/>
<path d="M59.8806 35.7375V28.173V20.6085H68.6306H77.3806L77.3769 27.5861C77.3751 31.4239 77.3025 34.828 77.216 35.1506C77.0674 35.7042 76.9246 35.7375 74.7101 35.7375C72.5806 35.7375 72.3785 35.7801 72.5389 36.194C73.1921 37.8801 72.8366 39.5462 71.621 40.4962L70.8617 41.0896L71.2472 49.4343C71.7513 60.3528 72.6224 79.6478 72.9625 87.4307C73.1547 91.8364 73.1508 93.9075 72.9487 94.6575C71.8394 98.7715 66.4034 99.1988 64.5165 95.3203L63.9602 94.1762L64.5288 81.4555C64.8417 74.4588 65.3537 62.539 65.6668 54.9669L66.236 41.1991L65.3437 40.2799C64.5586 39.471 64.452 39.1979 64.4565 38.0056C64.4591 37.2604 64.5599 36.4452 64.6803 36.194C64.8809 35.7759 64.6889 35.7375 62.3899 35.7375H59.8806Z" fill="#375030"/>
</svg>
