<svg width="787" height="217" viewBox="0 0 787 217" fill="none" xmlns="http://www.w3.org/2000/svg">
<path fill-rule="evenodd" clip-rule="evenodd" d="M109.134 36.4051C106.738 38.0833 106.537 39.5468 106.537 55.3685C106.537 67.1695 106.686 70.4731 107.28 71.8955C108.86 75.6751 114.543 76.0202 116.709 72.468C117.634 70.9517 117.698 69.8109 117.7 54.9371L117.702 39.0282L115.976 37.3028C114.607 35.9337 113.844 35.5775 112.283 35.5775C111.201 35.5775 109.784 35.9499 109.134 36.4051ZM160.289 37.0608C158.578 38.7719 158.711 37.1293 158.667 57.2309C158.633 72.6562 158.705 73.0104 162.188 74.4659C164.4 75.3899 166.916 74.7079 168.44 72.7709C169.416 71.5297 169.463 70.7431 169.463 55.5202C169.463 44.7727 169.278 39.2089 168.896 38.4619C167.917 36.5492 166.291 35.6008 163.968 35.5886C162.21 35.5795 161.478 35.8728 160.289 37.0608ZM52.9331 93.8053L53.0001 148.61L63.1494 148.887C73.2103 149.162 76.9275 149.632 86.2389 151.807C96.1537 154.123 106.951 158.866 113.99 163.998C117.503 166.559 117.622 167.256 114.256 165.546C111.635 164.215 102.095 161.149 96.72 159.911C82.4456 156.624 66.868 156.083 47.7986 158.215L45.1344 158.512V107.194V55.8759H40.5673H36.0001V112.767V169.658L37.1419 169.375C37.7696 169.219 41.024 168.628 44.3732 168.06C75.1615 162.84 103.18 165.519 120.366 175.325L124.299 177.568V171.216V164.864L122.396 163.092C109.139 150.746 90.9999 142.732 71.5225 140.616C68.5919 140.297 65.2239 139.926 64.0374 139.791L61.8807 139.545V94.6659V49.7864H63.2031C66.9284 49.7864 77.0812 53.5731 83.3717 57.3085C88.1992 60.1752 93.1449 65.2117 93.6199 67.745C93.9802 69.6657 93.8863 69.8972 82.7003 94.6969C74.1516 113.65 74.7063 111.935 76.1317 114.995C76.7818 116.391 78.5793 118.802 80.127 120.354C89.377 129.63 104.021 129.713 113.633 120.544C116.703 117.616 118.716 114.336 118.716 112.263C118.716 111.634 115.209 103.314 110.923 93.7738C100.465 70.496 100.572 70.7598 100.22 67.3385C99.2588 57.9758 87.7308 47.5454 73.0449 42.7499C68.4204 41.2402 61.3062 39.7554 56.7391 39.3469L52.8666 39.0008L52.9331 93.8053ZM215.906 39.6955C202.308 41.6756 190.422 47.1334 182.616 54.9813C178.797 58.8208 176.065 64.0405 176.049 67.5334C176.042 68.797 175.566 70.8588 174.991 72.1148C166.302 91.0629 157.791 110.884 157.791 112.173C157.791 114.354 159.33 117.188 162.011 119.947C169.434 127.585 180.48 129.49 190.183 124.806C194.984 122.49 200.902 115.457 200.92 112.05C200.925 111.258 194.895 97.5031 184.813 75.3042L181.998 69.1055L182.874 66.8113C184.481 62.6034 191.9 56.9964 200.672 53.3594C205.518 51.3504 210.793 49.7864 212.722 49.7864H214.12V94.6872V139.588L212.978 139.819C212.349 139.946 209.781 140.185 207.27 140.349C197.36 140.997 184.1 144.523 174.538 149.051C168.702 151.815 159.702 157.746 155.381 161.675L152.209 164.558V171.095V177.632L154.474 176.104C161.388 171.438 174.704 167.41 187.839 166.012C201 164.611 226.557 166.284 238.745 169.343L240 169.658V112.767V55.8759H235.433H230.866V107.201V158.526L227.948 158.195C217.762 157.041 211.94 156.768 203.463 157.047C187.061 157.588 175.162 160.122 160.118 166.278C158.223 167.053 159.848 165.501 163.535 163.013C177.013 153.918 195.922 148.742 215.668 148.742H223.254V93.9357V39.1297L221.097 39.1916C219.911 39.2256 217.575 39.4524 215.906 39.6955ZM121.254 55.3685V70.0849H126.129C130.596 70.0849 130.969 70.1595 130.579 70.973C130.345 71.4616 130.149 73.0475 130.144 74.4973C130.135 76.8169 130.342 77.3482 131.868 78.9219L133.601 80.7102L132.496 107.495C131.887 122.226 130.893 145.415 130.285 159.027L129.18 183.774L130.261 186C133.927 193.545 144.488 192.714 146.643 184.711C147.036 183.252 147.044 179.222 146.67 170.651C146.009 155.51 144.317 117.973 143.338 96.7313L142.589 80.497L144.064 79.3426C146.425 77.4944 147.116 74.2532 145.847 70.973C145.535 70.1676 145.928 70.0849 150.066 70.0849C154.368 70.0849 154.645 70.02 154.934 68.9431C155.102 68.3154 155.243 61.693 155.247 54.2267L155.254 40.6521H138.254H121.254V55.3685ZM99.8536 82.6446C101.254 85.9244 104.487 93.2886 107.038 99.0103C109.588 104.732 111.8 109.699 111.952 110.048C112.169 110.547 109.032 110.682 97.2036 110.682C88.9401 110.682 82.1792 110.503 82.1792 110.286C82.1792 110.067 85.264 102.931 89.0345 94.4274C92.8044 85.9234 96.1111 78.452 96.3815 77.8237C96.6525 77.196 96.9712 76.6819 97.0905 76.6819C97.2092 76.6819 98.453 79.3649 99.8536 82.6446ZM181.045 80.4879C183.819 86.6952 193.896 109.387 194.172 110.048C194.381 110.547 191.182 110.682 179.146 110.682H163.855L164.574 109.286C164.969 108.519 168.308 101.04 171.993 92.667C178.889 77.0011 179.119 76.5033 179.332 76.7748C179.401 76.8636 180.172 78.5342 181.045 80.4879ZM279.877 73.6734V79.6734H292.377H304.877V114.673V149.673H311.877H318.877V114.673V79.6734H331.377H343.877V73.6734V67.6734H311.877H279.877V73.6734ZM384.706 98.9234C384.411 125.776 384.128 130.603 382.695 133.228C379.834 138.469 371.813 140.417 366.994 137.042C364.33 135.177 361.877 129.951 361.877 126.144C361.877 123.63 361.731 123.569 357.127 124.166C347.247 125.447 347.546 125.241 348.24 130.307C349.012 135.935 351.264 140.788 354.7 144.223C359.683 149.206 362.649 150.173 372.955 150.173C381.838 150.173 382.892 149.955 387.455 147.173C391.313 144.822 393.026 142.876 395.377 138.173L398.377 132.173L398.701 99.9234L399.024 67.6734H392.036H385.048L384.706 98.9234ZM444.877 108.735V149.937L466.127 149.408C489.408 148.829 495.208 147.748 500.242 143.052C504.561 139.023 506.83 133.129 506.855 125.873C506.887 116.765 503.759 111.186 496.56 107.512L492.743 105.564L496.006 103.365C500.995 100.003 503.044 95.6994 503.01 88.6504C502.971 80.6174 500.055 75.2924 493.459 71.2144L488.541 68.1734L466.709 67.8534L444.877 67.5334V108.735ZM651.877 108.673V149.673H657.377H662.877V137.869V126.065L666.362 122.688C668.279 120.83 670.029 119.504 670.251 119.741C670.474 119.979 675.003 126.81 680.317 134.923L689.979 149.673H696.55C702.888 149.673 703.072 149.603 701.749 147.7C700.994 146.615 695.291 138.208 689.074 129.019L677.771 112.311L689.058 100.992L700.344 89.6734H693.875H687.406L675.141 101.908L662.877 114.143V90.9084V67.6734H657.377H651.877V108.673ZM486.953 79.2134C489.89 80.7314 492.877 86.1334 492.877 89.9264C492.877 93.0644 489.039 98.7784 485.847 100.394C484.233 101.211 478.614 101.649 469.627 101.658L455.877 101.673L455.876 89.4234L455.875 77.1734L470.087 77.5074C479.586 77.7304 485.18 78.2954 486.953 79.2134ZM535.625 90.1004C524.137 94.1994 517.877 104.402 517.877 119.026C517.877 127.867 519.854 134.961 523.858 140.488C532.305 152.149 553.904 153.968 564.991 143.951C570.116 139.321 572.47 134.676 573.925 126.321C575.263 118.633 573.998 108.762 570.907 102.775C568.15 97.4374 562.01 92.0734 556.592 90.2674C550.822 88.3454 540.768 88.2644 535.625 90.1004ZM602.871 89.5494C588.483 94.2584 580.922 108.611 583.764 125.818C585.109 133.961 586.844 137.836 591.239 142.511C596.782 148.406 601.223 150.087 611.377 150.133C619.529 150.169 620.883 149.893 625.747 147.199C635.175 141.977 639.877 133.04 639.877 120.344C639.877 106.972 635.225 97.3054 626.261 92.0524C622.362 89.7674 620.183 89.2494 613.469 89.0144C609.018 88.8574 604.249 89.0984 602.871 89.5494ZM720.407 90.2674C715.161 92.1884 711.425 95.9004 710.02 100.589C708.444 105.851 708.566 107.399 710.947 112.318C713.435 117.457 718.957 120.468 731.806 123.692C742.296 126.324 745.68 128.04 746.453 131.119C749.126 141.769 729.134 146.425 720.917 137.066C719.245 135.161 717.877 132.944 717.877 132.138C717.877 131.101 716.734 130.673 713.959 130.673C707.243 130.673 706.811 131.123 708.572 136.292C712.519 147.876 725.923 153.232 741.877 149.599C754.014 146.836 760.461 135.575 756 124.932C754.095 120.386 749.937 118.167 735.31 113.894C724.96 110.871 722.193 109.663 720.551 107.452C718.84 105.149 718.71 104.334 719.706 102.15C721.962 97.1984 732.742 95.0004 738.971 98.2224C740.618 99.0734 742.832 101.195 743.891 102.936C745.635 105.805 746.218 106.073 750.095 105.793C752.448 105.623 754.708 105.278 755.116 105.025C756.265 104.315 753.072 97.4874 750.18 94.4684C748.755 92.9804 745.549 91.0684 743.055 90.2184C737.425 88.3004 725.712 88.3254 720.407 90.2674ZM552.161 98.1474C562.86 102.617 567.065 119.97 560.566 132.827C557.458 138.975 552.978 141.673 545.879 141.673C538.695 141.673 533.031 138.013 530.526 131.755C528.369 126.362 528.311 112.962 530.425 107.905C534.4 98.3904 543.242 94.4214 552.161 98.1474ZM618.956 98.9964C625.532 102.474 628.877 109.417 628.877 119.591C628.877 133.482 622.403 141.673 611.425 141.673C603.516 141.673 597.702 137.19 595.353 129.282C591.396 115.955 595.757 102.384 605.377 98.0904C609.816 96.1094 614.027 96.3904 618.956 98.9964ZM484.723 112.292C486.426 112.633 489.45 114.321 491.443 116.044C498.491 122.137 496.865 133.957 488.453 137.778C485.106 139.298 481.828 139.633 470.127 139.651L455.877 139.673V125.673V111.673H468.752C475.833 111.673 483.02 111.952 484.723 112.292Z" fill="#375030"/>
</svg>
